HIERARCHY
ROOT Hips
{
	OFFSET -3.958830 18.904000 13.208200
	CHANNELS 6 Xposition Yposition Zposition Zrotation Yrotation Xrotation 
	JOINT LHipJoint
	{
		OFFSET 0.000000 0.000000 0.000000
		CHANNELS 3 Zrotation Yrotation Xrotation
		JOINT LeftUpLeg
		{
			OFFSET 1.800000 -1.400000 0.085000
			CHANNELS 3 Zrotation Yrotation Xrotation
			JOINT LeftLeg
			{
				OFFSET 2.215000 -6.000000 0.000000
				CHANNELS 3 Zrotation Yrotation Xrotation
				JOINT LeftFoot
				{
					OFFSET 2.500000 -6.900000 0.000000
					CHANNELS 3 Zrotation Yrotation Xrotation
					JOINT LeftToeBase
					{
						OFFSET 0.200000 -0.500000 1.950000
						CHANNELS 3 Zrotation Yrotation Xrotation
						End Site
						{
							OFFSET 0.000000 0.000000 0.000000
						}
					}
				}
			}
		}
	}
	JOINT RHipJoint
	{
		OFFSET 0.000000 0.000000 0.000000
		CHANNELS 3 Zrotation Yrotation Xrotation
		JOINT RightUpLeg
		{
			OFFSET -1.800000 -1.400000 0.085000
			CHANNELS 3 Zrotation Yrotation Xrotation
			JOINT RightLeg
			{
				OFFSET -2.215000 -6.000000 0.000000
				CHANNELS 3 Zrotation Yrotation Xrotation
				JOINT RightFoot
				{
					OFFSET -2.500000 -6.900000 0.000000
					CHANNELS 3 Zrotation Yrotation Xrotation
					JOINT RightToeBase
					{
						OFFSET -0.200000 -0.500000 1.950000
						CHANNELS 3 Zrotation Yrotation Xrotation
						End Site
						{
							OFFSET 0.000000 0.000000 0.000000
						}
					}
				}
			}
		}
	}
	JOINT LowerBack
	{
		OFFSET 0.000000 0.000000 0.000000
		CHANNELS 3 Zrotation Yrotation Xrotation
		JOINT Spine
		{
			OFFSET -0.087000 1.940000 -0.288900
			CHANNELS 3 Zrotation Yrotation Xrotation
			JOINT Spine1
			{
				OFFSET 0.000000 1.950000 0.060000
				CHANNELS 3 Zrotation Yrotation Xrotation
				JOINT Neck
				{
					OFFSET 0.000000 0.000000 0.000000
					CHANNELS 3 Zrotation Yrotation Xrotation
					JOINT Neck1
					{
						OFFSET 0.000000 1.600000 0.340000
						CHANNELS 3 Zrotation Yrotation Xrotation
						JOINT Head
						{
							OFFSET 0.000000 1.667000 -0.240000
							CHANNELS 3 Zrotation Yrotation Xrotation
							End Site
							{
								OFFSET 0.000000 0.000000 0.000000
							}
						}
					}
				}
				JOINT LeftShoulder
				{
					OFFSET 0.000000 0.000000 0.000000
					CHANNELS 3 Zrotation Yrotation Xrotation
					JOINT LeftArm
					{
						OFFSET 2.700000 1.550000 -0.730000
						CHANNELS 3 Zrotation Yrotation Xrotation
						JOINT LeftForeArm
						{
							OFFSET 5.450000 0.000000 0.000000
							CHANNELS 3 Zrotation Yrotation Xrotation
							JOINT LeftHand
							{
								OFFSET 3.450000 0.000000 0.000000
								CHANNELS 3 Zrotation Yrotation Xrotation
								JOINT LeftHandIndex1
								{
									OFFSET 0.750000 0.000000 0.000000
									CHANNELS 3 Zrotation Yrotation Xrotation
									End Site
									{
										OFFSET 0.000000 0.000000 0.000000
									}
								}
							}
						}
					}
				}
				JOINT RightShoulder
				{
					OFFSET 0.000000 0.000000 0.000000
					CHANNELS 3 Zrotation Yrotation Xrotation
					JOINT RightArm
					{
						OFFSET -2.700000 1.550000 -0.730000
						CHANNELS 3 Zrotation Yrotation Xrotation
						JOINT RightForeArm
						{
							OFFSET -5.450000 0.000000 0.000000
							CHANNELS 3 Zrotation Yrotation Xrotation
							JOINT RightHand
							{
								OFFSET -3.450000 0.000000 0.000000
								CHANNELS 3 Zrotation Yrotation Xrotation
								JOINT RightHandIndex1
								{
									OFFSET -0.750000 0.000000 0.000000
									CHANNELS 3 Zrotation Yrotation Xrotation
									End Site
									{
										OFFSET 0.000000 0.000000 0.000000
									}
								}
							}
						}
					}
				}
			}
		}
	}
}
MOTION
Frames: 7
Frame Time: 0.016667
0.429530 16.293200 -4.518220 15.247425 -1.308405 1.327454 -15.123295 12.457348 2.975847 27.866882 -0.393372 -10.906608 -14.194740 10.830784 17.287753 0.320810 6.796087 2.005830 0.274110 0.201520 0.291300 18.598789 -8.589073 4.302255 -34.564992 1.054070 -36.159107 22.113007 -24.089557 49.164004 -1.344909 -10.332462 0.657103 0.124280 -0.144210 0.078280 -4.110365 -3.204515 -8.638348 25.871160 -16.516978 22.513496 -19.820542 -9.430295 4.611990 11.196504 -11.955411 -11.604093 -25.014378 7.117544 32.313332 -15.798690 3.352760 -7.879570 -32.123846 -10.148025 4.930277 -33.007576 5.995105 -1.467936 10.648243 2.133812 0.397755 -3.787360 3.031153 0.107700 -0.015210 0.063550 0.002440 8.630254 19.551213 5.789166 -10.056745 8.564125 -11.129853 -113.188658 14.947553 -26.306056 2.376274 -2.091294 0.040150 0.006320 -0.081420 -0.111840 
0.439090 16.316130 -4.521770 15.084129 -1.144114 1.499458 -15.147957 12.565927 3.041204 26.959276 -0.734781 -12.254700 -15.291377 12.053265 20.957525 0.394664 7.199773 1.854577 0.266110 0.199860 0.281840 18.560561 -8.607594 4.221941 -33.342784 1.281083 -36.714297 20.079613 -23.185353 50.240083 -1.313786 -10.233949 0.690834 0.114350 -0.149920 0.082140 -4.025203 -3.394186 -8.637876 26.070685 -16.553462 23.506935 -19.392609 -9.280980 3.222206 11.232260 -11.932908 -11.682676 -25.106342 7.037853 32.067732 -16.488290 3.710900 -7.844080 -33.158059 -10.169329 4.715710 -32.408921 6.413997 -1.696344 11.275331 1.799503 0.373315 -3.783934 3.040427 0.106280 -0.016100 0.073060 0.009150 9.553331 19.783952 5.966700 -9.291747 7.773262 -11.144368 -117.613275 12.008090 -24.198969 2.387671 -2.166217 0.046620 -0.002380 -0.086420 -0.106030 
0.435960 16.353570 -4.556050 14.787725 -0.616479 0.946902 -15.216834 12.707402 3.326796 25.652517 -1.584201 -14.642222 -17.395795 14.276924 26.768787 0.573033 8.053397 1.541222 0.268460 0.195890 0.289480 18.462739 -8.624759 3.979289 -31.046219 1.767726 -36.473994 16.995870 -21.694497 51.897910 -1.277099 -10.035588 0.753475 0.093480 -0.189290 0.078930 -3.804336 -3.815454 -8.711733 25.353050 -16.534576 26.385562 -18.112937 -8.866394 1.293391 11.333819 -11.555090 -12.069843 -25.146827 6.716331 33.312280 -16.841200 3.240090 -7.959870 -34.267357 -10.725574 4.478891 -31.370002 6.192925 -1.920433 11.912279 1.553675 0.317785 -3.753302 3.042575 0.129230 -0.050670 0.099240 0.005150 10.544939 20.484836 6.478729 -8.068731 5.746468 -11.370248 -123.682150 9.704889 -23.785499 2.384697 -2.251127 0.062440 -0.019210 -0.095260 -0.107980 
0.439300 16.390630 -4.589020 14.514740 -0.039088 0.858156 -15.239865 12.684813 3.553031 23.202825 -2.635141 -16.885452 -19.231560 16.102686 31.243826 0.740500 8.753094 1.315119 0.261040 0.178510 0.295530 18.424463 -8.657444 3.860279 -29.052062 2.265075 -36.894205 14.841124 -20.624194 53.296368 -1.253049 -9.930666 0.784619 0.080520 -0.207690 0.077540 -3.722761 -3.896970 -8.770160 24.954891 -16.038003 28.341090 -17.285234 -7.996321 0.002694 11.195174 -11.049404 -11.931849 -24.288821 5.455960 33.787834 -17.074490 2.133320 -8.105500 -34.650735 -10.768795 3.887136 -30.243532 4.690726 -2.099189 12.600948 1.297328 0.229449 -3.766625 3.029357 0.138600 -0.064490 0.104420 -0.006710 11.241114 20.254087 6.835139 -6.704450 3.063324 -11.564710 -128.375315 9.882887 -27.388193 2.354029 -2.304135 0.064430 -0.026690 -0.092120 -0.113620 
0.447660 16.401910 -4.616030 13.761822 1.073137 0.474776 -15.261253 12.634751 3.811522 20.985182 -3.661262 -18.410187 -21.507609 17.604845 33.846148 0.902993 9.339050 1.146074 0.250120 0.162150 0.293110 18.387953 -8.749590 3.628707 -26.809129 2.548233 -36.339067 12.721641 -19.419393 54.014215 -1.211191 -9.725128 0.849864 0.071880 -0.204910 0.077570 -3.651002 -3.937099 -8.763838 24.439715 -16.075362 29.755210 -16.296854 -7.959839 0.252924 10.974035 -10.811829 -12.113845 -23.782768 5.026342 33.118795 -16.986610 1.821260 -8.514170 -33.740327 -11.375118 4.181365 -29.823872 3.961557 -1.961917 11.744887 0.488691 0.136003 -3.751957 3.022120 0.147840 -0.066330 0.104090 -0.013370 10.949450 20.516921 6.996017 -6.930793 0.992946 -12.078127 -127.995610 13.188826 -34.342750 2.311072 -2.256017 0.057760 -0.019930 -0.081540 -0.117570 
0.442590 16.410550 -4.627750 12.820937 1.031085 0.129310 -15.276449 12.596530 4.023102 18.948609 -4.310799 -19.235308 -23.757496 18.689253 34.833023 1.023652 9.691280 1.058161 0.275710 0.200390 0.298000 18.347839 -8.879589 3.435265 -24.038632 3.195830 -35.770667 10.963742 -17.865716 53.911898 -1.148452 -9.369706 0.974965 0.100430 -0.196900 0.066600 -3.574248 -3.849951 -8.752969 22.877051 -15.342648 31.310738 -14.395981 -7.704691 1.059447 10.307051 -10.613474 -11.584455 -22.732054 4.580264 32.470859 -15.688490 1.182610 -9.596810 -32.319060 -11.137124 4.354040 -30.215378 3.503300 -2.326638 11.379066 -2.714496 -0.183607 -3.697289 3.045945 0.150220 -0.069500 0.104180 -0.000840 11.028916 19.974385 6.466420 -8.752611 0.380826 -12.136562 -123.419308 19.249623 -40.956182 2.289743 -2.105465 0.053670 0.005570 -0.091520 -0.113890 
0.431530 16.424630 -4.662700 11.477996 1.611598 -0.146149 -15.313779 12.529662 4.236575 17.182122 -5.181249 -21.020309 -25.145909 19.280202 35.869954 1.089028 9.894626 0.988954 0.314800 0.257950 0.326850 18.302375 -8.945158 3.282664 -21.480974 3.621092 -35.131433 10.116839 -16.853441 53.282181 -1.119727 -9.037291 1.082667 0.127460 -0.224270 0.064770 -3.459692 -3.835176 -8.763587 20.982737 -14.834241 33.154976 -12.411310 -7.553925 2.774228 9.826890 -9.987437 -11.310864 -20.961514 3.806497 31.983721 -14.769780 0.662830 -11.845350 -28.963099 -10.853239 4.528295 -31.055280 2.280429 -2.744161 10.350345 -7.060500 -0.569608 -3.624250 3.056726 0.170940 -0.093910 0.135980 -0.000720 8.872150 18.959685 6.200689 -8.232938 -0.532994 -12.583052 -116.090510 26.559461 -46.391341 2.247945 -1.936499 0.066420 0.020270 -0.106380 -0.117620 
